<?xml version="1.0" encoding="UTF-8" standalone="no"?><!DOCTYPE svg PUBLIC "-//W3C//DTD SVG 1.1//EN" "http://www.w3.org/Graphics/SVG/1.1/DTD/svg11.dtd"><svg width="960px" height="220px" version="1.1" xmlns="http://www.w3.org/2000/svg" xmlns:xlink="http://www.w3.org/1999/xlink" xml:space="preserve" xmlns:serif="http://www.serif.com/" style="fill-rule:evenodd;clip-rule:evenodd;stroke-linejoin:round;stroke-miterlimit:2;"><g id="V4"><g id="Logo"><g><path id="New-Logo-2" serif:id="New Logo 2" d="M390.973,59.123L383.863,59.123L383.863,78.72L372.261,78.72L372.261,21.318L392.731,21.318C397.097,21.318 400.748,22.135 403.71,23.636C406.96,25.284 409.389,27.603 411.037,30.549C412.611,33.362 413.44,36.625 413.44,40.357C413.44,44.162 412.598,47.435 411.018,50.2C409.354,53.112 406.91,55.377 403.644,56.948C403.517,57.009 403.389,57.069 403.26,57.128L416.427,78.72L402.805,78.72L390.981,59.135L390.973,59.123ZM383.863,47.761L392.731,47.761C395.059,47.761 396.972,47.461 398.435,46.688C399.568,46.09 400.429,45.321 400.95,44.311C401.555,43.14 401.839,41.842 401.839,40.425C401.839,38.922 401.546,37.545 400.925,36.303C400.394,35.24 399.521,34.421 398.366,33.784C396.921,32.988 395.03,32.681 392.731,32.681L383.863,32.681L383.863,47.761Z" style="fill:#ed1c2d;"/><path id="New-Logo-21" serif:id="New Logo 2" d="M368.621,21.318L368.621,32.716L355.25,32.716L349.148,21.318L368.621,21.318ZM368.621,36.356L368.621,47.753L358.219,47.753L352.117,36.356L368.621,36.356Z" style="fill:#0082c4;"/></g><path id="Rubicell-3" serif:id="Rubicell 3" d="M544.16,77.672C540.968,78.368 539.228,78.531 537.96,78.224C536.548,77.877 532.927,76.363 532.354,75.871C531.372,75.053 528.835,71.575 528.406,70.429C527.546,68.178 527.137,62.327 527.751,60.895C527.935,60.486 528.242,59.647 528.467,59.054C528.671,58.46 529.04,57.683 529.306,57.315C529.572,56.947 530.165,55.739 530.656,54.614C531.147,53.468 531.843,52.241 532.211,51.852C532.579,51.463 533.234,50.481 533.643,49.662C534.768,47.515 537.94,44.609 540.517,43.381C544.262,41.602 547.679,43.157 550.317,47.862C551.095,49.233 551.259,49.724 551.422,51.238C551.689,53.448 551.545,54.041 550.706,54.389C549.519,54.9 549.029,54.429 548.477,52.282C548.312,51.565 547.964,51.075 547.003,50.154C545.08,48.292 543.771,47.821 542.257,48.455C541.336,48.844 538.533,51.647 537.612,53.1C537.203,53.734 536.466,54.798 535.976,55.494C535.341,56.353 534.952,57.151 534.707,58.092C534.523,58.828 534.093,59.933 533.766,60.507C533.213,61.509 533.152,61.754 533.05,64.414C532.968,66.869 533.009,67.442 533.356,68.649C534.073,71.022 535.035,71.472 539.597,71.534C542.973,71.596 546.574,71.104 547.924,70.409C548.456,70.122 549.56,69.774 550.379,69.652C551.197,69.508 552.098,69.263 552.364,69.099C552.834,68.793 552.834,68.751 552.711,66.399C552.629,65.028 552.67,63.207 552.793,62.082C552.916,61.018 553.1,59.361 553.182,58.399C553.284,57.437 553.55,56.149 553.816,55.534C554.062,54.921 554.348,54.123 554.451,53.755C554.573,53.366 555.105,52.711 555.841,52.077C556.804,51.238 557.09,50.849 557.274,50.092C557.458,49.397 557.765,48.946 558.461,48.313C558.972,47.842 559.79,47.065 560.261,46.594C560.895,45.939 561.754,45.448 563.555,44.65C565.969,43.607 566.01,43.607 568.179,43.586C570.122,43.566 570.409,43.607 570.941,44.016C571.247,44.261 572.189,44.834 572.987,45.305C573.989,45.857 574.501,46.287 574.563,46.594C574.91,48.128 575.524,53.263 575.422,53.714C575.36,54.02 574.951,55.044 574.48,56.025C573.805,57.437 573.478,57.887 572.741,58.399C571.882,58.992 571.371,59.565 569.448,62.143C568.977,62.756 568.302,63.33 567.667,63.657C567.095,63.943 566.276,64.537 565.847,64.966C565.151,65.683 564.946,65.764 564.066,65.764C563.002,65.764 561.141,66.583 560.22,67.442C559.729,67.912 559.586,68.976 559.934,69.631C560.343,70.368 562.307,71.677 563.555,72.005C564.762,72.353 564.803,72.353 566.726,71.841C568.015,71.472 568.915,71.35 569.488,71.431C570.061,71.493 570.532,71.431 570.982,71.207C571.78,70.777 574.91,70.081 575.933,70.061C576.444,70.061 576.915,69.876 577.447,69.447C578.184,68.874 578.306,68.834 580.127,68.834C581.948,68.834 582.03,68.813 582.46,68.281C582.889,67.729 582.91,67.585 582.787,64.946C582.705,63.432 582.603,59.626 582.542,56.496C582.439,51.177 582.46,50.706 582.849,49.438C583.217,48.272 583.258,47.555 583.237,44.588C583.217,42.604 583.319,40.538 583.462,39.781C583.871,37.551 584.321,35.628 584.628,34.809C584.792,34.4 584.915,33.745 584.915,33.377C584.915,32.395 585.528,30.861 586.265,30.063C587.451,28.753 588.495,29.244 589.621,31.617C590.459,33.397 590.705,35.218 590.582,38.635C590.439,42.42 590.071,46.839 589.825,47.76C589.723,48.148 589.621,49.724 589.621,51.238C589.621,52.752 589.518,54.327 589.416,54.716C589.314,55.125 589.171,59.074 589.13,63.514C589.006,73.089 588.823,76.015 588.311,77.017C587.697,78.204 587.37,78.449 586.49,78.449C585.754,78.449 585.528,78.306 584.465,77.263C583.564,76.342 583.278,75.913 583.278,75.462C583.278,74.685 582.91,73.375 582.644,73.212C582.542,73.151 582.234,73.232 581.989,73.395C581.744,73.56 581.17,73.805 580.72,73.948C580.27,74.091 579.554,74.521 579.124,74.91C578.102,75.81 577.59,75.994 575.953,75.994C575.196,75.994 574.071,76.137 573.458,76.301C572.843,76.485 571.739,76.751 571.003,76.894C570.266,77.038 569.14,77.365 568.506,77.61C566.645,78.306 563.944,78.224 561.427,77.406C558.42,76.444 557.54,75.994 556.517,74.93C556.006,74.378 555.412,73.948 555.228,73.948C555.044,73.948 554.123,74.358 553.182,74.848C552.037,75.462 550.993,75.851 550.031,76.015C549.254,76.137 548.251,76.424 547.842,76.628C547.433,76.833 545.776,77.303 544.16,77.672ZM559.483,60.486C559.913,60.977 561.202,60.977 562.655,60.465C563.616,60.138 564.148,59.709 566.726,57.11C570.859,52.957 571.8,50.993 570.45,49.376C569.304,48.026 567.381,47.617 565.703,48.394C564.312,49.008 562.675,50.501 562.389,51.402C562.266,51.811 561.713,52.63 561.182,53.202C560.65,53.755 560.158,54.409 560.097,54.635C559.074,58.03 558.87,59.811 559.483,60.486ZM522.165,77.181C521.695,77.529 521.613,77.508 520.917,76.915C520.099,76.219 519.751,75.4 519.342,73.232C519.157,72.229 518.81,70.757 518.565,69.959C517.991,68.076 517.991,64.271 518.585,59.013C518.81,56.926 519.076,54.348 519.157,53.284C519.301,51.013 519.914,47.801 520.344,46.962C520.529,46.635 521.122,45.96 521.715,45.427C522.574,44.65 522.902,44.486 523.557,44.486C524.661,44.486 525.868,45.305 526.421,46.471C526.83,47.31 526.851,47.494 526.625,49.253C526.503,50.297 526.36,51.647 526.298,52.282C526.236,52.895 525.95,53.877 525.684,54.45C525.418,55.023 525.153,56.046 525.07,56.701C524.989,57.356 524.805,58.665 524.661,59.626C524.518,60.588 524.272,62.798 524.15,64.537C523.434,74.276 523.086,76.485 522.165,77.181ZM533.315,39.535C532.784,40.067 530.288,39.638 529.469,38.881C528.856,38.307 528.037,38.042 525.95,37.735C524.641,37.551 524.068,37.551 522.574,37.837C520.877,38.164 520.795,38.164 520.283,37.776C519.997,37.571 519.649,37.08 519.526,36.691C518.524,33.664 518.565,33.929 518.974,33.09C519.485,32.006 520.488,31.556 522.37,31.535C523.188,31.535 524.355,31.658 524.968,31.801C526.953,32.272 529.346,33.049 529.858,33.377C532.314,34.973 534.318,38.533 533.315,39.535ZM607.666,79.656C606.479,80.291 603.758,79.247 602.06,77.488C601.058,76.424 598.848,72.475 598.316,70.757C597.763,68.976 597.395,65.989 597.15,61.366C596.924,57.171 596.945,56.782 597.272,55.739C597.518,55.003 597.64,54.082 597.62,53.018C597.62,52.138 597.743,50.747 597.907,49.949C598.07,49.131 598.214,48.107 598.214,47.658C598.214,47.208 598.398,45.775 598.623,44.486C598.848,43.198 599.032,41.888 599.032,41.602C599.032,41.315 599.318,40.558 599.645,39.924C600.116,39.044 600.26,38.492 600.26,37.674C600.26,37.08 600.382,36.119 600.546,35.566C600.71,35.014 600.893,34.154 600.976,33.643C601.037,33.131 601.426,31.74 601.815,30.533C602.203,29.326 602.613,27.812 602.735,27.157C603.022,25.684 603.267,25.213 604.536,23.884C605.19,23.167 605.702,22.799 606.029,22.799C606.806,22.799 607.707,23.495 608.137,24.415C608.566,25.377 608.566,25.316 607.502,30.308C606.991,32.661 606.95,33.131 607.154,33.888C607.359,34.604 607.339,35.034 607.072,36.2C606.909,36.998 606.622,37.919 606.438,38.246C606.275,38.594 606.111,39.433 606.07,40.128C606.029,40.824 605.865,41.847 605.681,42.379C605.415,43.157 605.354,43.77 605.477,45.223C605.579,46.819 605.538,47.269 605.19,48.292C604.904,49.09 604.76,49.99 604.76,51.054C604.76,51.893 604.638,54.02 604.474,55.76C603.983,61.059 603.922,62.921 604.147,65.048C604.27,66.174 604.453,68.24 604.536,69.652C604.74,73.13 605.292,74.255 607.113,75.073C608.259,75.565 608.852,76.342 608.852,77.263C608.832,77.979 608.116,79.411 607.666,79.656ZM439.427,78.92C438.424,80.147 437.831,80.004 435.805,78.142C433.841,76.322 433.452,75.421 433.432,72.823C433.411,70.081 434.066,65.764 434.864,63.432C435.785,60.813 435.949,58.787 435.478,56.353C434.966,53.796 433.964,49.929 433.371,48.292C432.573,46.062 432.307,44.753 432.286,42.87C432.286,41.213 432.307,41.152 432.982,40.476C433.371,40.088 433.862,39.781 434.087,39.781C434.578,39.781 436.173,41.008 437.238,42.195C438.036,43.075 438.731,44.303 439.345,45.98C439.795,47.167 440.511,47.801 441.146,47.576C441.37,47.494 441.862,46.9 442.209,46.287C442.536,45.673 443.253,44.732 443.785,44.22C444.378,43.648 445.053,42.665 445.524,41.724C446.199,40.313 448.245,37.674 448.982,37.264C449.145,37.183 449.636,36.568 450.086,35.914C450.516,35.239 451.723,33.95 452.746,33.009C454.935,31.004 458.331,29.141 459.825,29.141C461.667,29.141 462.914,31.167 462.055,32.804C461.83,33.254 461.298,33.602 459.784,34.256C456.367,35.75 452.93,38.696 451.089,41.724C450.475,42.707 449.452,44.118 448.817,44.814C448.081,45.632 447.57,46.41 447.427,46.941C447.304,47.412 446.874,48.128 446.485,48.558C445.769,49.376 445.401,50.256 444.358,53.693C444.03,54.757 443.539,56.23 443.253,56.967C442.353,59.32 442.025,61.284 442.271,62.634C442.639,64.516 442.782,69.181 442.536,70.879C442.086,74.091 440.92,77.12 439.427,78.92ZM484.847,78.654C484.663,78.756 483.926,78.899 483.21,78.96C481.799,79.084 480.142,78.633 478.341,77.631C477.113,76.915 474.331,73.109 473.737,71.329C473.267,69.856 472.939,69.611 472.08,70.061C471.835,70.204 471.405,70.695 471.16,71.166C470.423,72.455 469.462,73.662 468.479,74.48C467.989,74.889 467.374,75.503 467.129,75.871C466.863,76.219 466.249,76.731 465.778,77.017C465.308,77.303 464.592,77.753 464.203,77.999C463.426,78.49 462.383,78.572 461.687,78.204C461.441,78.081 460.48,77.283 459.559,76.444C458.004,75.012 457.861,74.808 457.268,73.191C456.654,71.493 456.633,71.35 456.633,67.892C456.633,65.416 456.552,64.005 456.326,63.166C455.876,61.407 455.937,59.565 456.531,57.56C456.859,56.496 457.145,54.921 457.268,53.387C457.697,47.903 458.188,45.264 458.986,44.138C459.354,43.607 460.562,43.177 461.257,43.34C461.544,43.422 461.973,43.832 462.28,44.343C462.587,44.814 463.037,45.427 463.303,45.714C463.938,46.389 464.612,48.394 464.612,49.56C464.612,50.338 464.51,50.563 463.876,51.177C463.222,51.791 463.057,52.138 462.648,53.918C462.383,55.044 462.076,57.212 461.953,58.767C461.85,60.301 461.646,62.429 461.503,63.473C461.257,65.294 461.278,65.437 461.728,66.767C461.994,67.524 462.239,68.588 462.259,69.099C462.342,70.265 462.464,70.47 463.037,70.47C464.162,70.45 466.086,68.588 466.802,66.829C466.965,66.419 467.539,65.662 468.05,65.13C469.871,63.371 472.08,60.834 472.367,60.179C472.715,59.402 473.349,57.069 474.311,53.161C475.17,49.703 475.518,48.722 476.663,46.778C477.87,44.691 479.078,43.463 479.916,43.463C480.755,43.463 481.39,44.098 481.39,44.957C481.41,45.305 481.532,45.837 481.696,46.123C481.901,46.471 481.982,47.289 482.003,48.701C482.003,50.645 481.962,50.87 481.369,51.975C480.407,53.796 479.794,56.23 479.016,61.222C478.709,63.227 478.689,63.821 478.893,65.478C479.2,67.871 479.732,69.529 480.837,71.37C482.064,73.416 482.76,74.071 483.987,74.234C485.133,74.398 486.095,74.746 486.095,74.991C486.095,75.094 486.177,75.176 486.259,75.176C486.361,75.176 486.545,74.685 486.688,74.112C486.852,73.519 487.138,72.782 487.364,72.475C487.568,72.168 487.957,71.35 488.223,70.633C488.693,69.426 488.714,69.038 488.714,65.355C488.714,57.212 488.755,55.801 488.959,54.409C489.123,53.407 489.102,52.527 488.959,51.443C488.796,50.338 488.796,48.537 488.98,44.916C489.164,40.967 489.164,39.597 488.959,38.431C488.816,37.592 488.755,36.589 488.837,36.159C489.246,33.725 489.389,32.149 489.573,28.303C489.757,24.252 489.798,23.965 490.412,22.349C490.76,21.408 491.19,20.487 491.374,20.303C491.864,19.71 492.908,19.853 493.911,20.61C495.752,22.022 495.936,22.717 495.957,27.853C495.977,30.472 495.916,31.249 495.629,31.904C494.811,33.827 494.463,36.589 494.382,41.929C494.361,44.753 494.382,48.394 494.463,50.051C494.606,53.366 494.811,53.898 495.936,53.898C496.407,53.898 496.652,53.693 497.225,52.834C497.614,52.241 498.023,51.504 498.146,51.197C498.269,50.89 498.76,50.358 499.23,50.031C500.601,49.09 502.361,47.576 503.854,46.082C504.611,45.325 505.471,44.609 505.777,44.507C506.063,44.384 507.27,44.2 508.437,44.057C511.117,43.77 511.649,43.955 512.918,45.632C514.329,47.515 514.534,47.883 515.291,50.072C516.314,53.018 516.375,54.225 515.598,57.376C514.861,60.363 513.9,62.573 512.529,64.373C511.976,65.089 511.137,66.255 510.647,66.992C509.337,68.956 506.718,71.677 505.143,72.721C504.386,73.232 503.445,73.907 503.077,74.214C502.688,74.541 501.911,75.012 501.337,75.278C500.765,75.524 499.844,76.055 499.271,76.465C497.982,77.406 497.45,77.59 495.527,77.856C494.667,77.979 493.399,78.306 492.703,78.572C491.455,79.084 491.414,79.084 490.269,78.736C488.837,78.327 487.364,77.426 486.791,76.608L486.361,76.015L485.768,77.242C485.461,77.918 485.031,78.572 484.847,78.654ZM496.366,70.838C496.714,71.248 497.553,71.125 498.76,70.45C500.13,69.672 502.156,68.219 503.506,67.053C504.038,66.583 504.611,66.133 504.775,66.031C504.938,65.948 505.368,65.416 505.757,64.844C506.125,64.291 506.841,63.33 507.332,62.736C507.844,62.123 508.355,61.345 508.478,60.997C508.621,60.629 509.153,59.463 509.685,58.399C510.36,57.049 510.749,55.944 510.954,54.818C511.363,52.547 511.322,52.138 510.585,50.625C509.685,48.803 509.275,48.763 507.537,50.297C506.82,50.91 505.982,51.708 505.634,52.036C505.306,52.384 504.652,53.039 504.202,53.509C503.751,53.959 502.974,54.737 502.463,55.227C501.951,55.719 501.215,56.64 500.826,57.294C500.437,57.969 499.68,59.074 499.128,59.79C497.982,61.345 497.594,62.184 497.327,63.8C497.225,64.455 496.959,65.335 496.755,65.744C495.936,67.319 495.752,70.041 496.366,70.838Z" style="fill:#97999a;"/></g><path d="M72.933,179.117L34.608,179.117L34.608,112.289L72.841,112.289L72.841,123.442L48.056,123.442L48.056,139.369L69.032,139.369L69.032,150.155L48.056,150.155L48.056,168.01L72.933,168.01L72.933,179.117ZM89.895,142.979L89.895,179.117L76.998,179.117L76.998,129.455L89.023,129.455L89.428,134.379C90.781,132.599 92.359,131.21 94.164,130.212C96.183,129.095 98.463,128.537 101.003,128.537C102.93,128.537 104.698,128.873 106.304,129.547C107.91,130.22 109.295,131.291 110.458,132.76C111.621,134.228 112.523,136.171 113.166,138.589C113.808,141.006 114.13,143.989 114.13,147.539L114.13,179.117L101.232,179.117L101.232,147.447C101.232,145.305 101.018,143.645 100.59,142.467C100.161,141.289 99.526,140.463 98.685,139.989C97.843,139.514 96.765,139.277 95.449,139.277C94.225,139.277 93.139,139.614 92.19,140.287C91.276,140.936 90.511,141.833 89.895,142.979ZM132.45,158.554C132.517,160.232 132.707,161.678 133.02,162.892C133.417,164.437 134.006,165.692 134.787,166.656C135.567,167.619 136.523,168.308 137.655,168.721C138.788,169.134 140.103,169.341 141.603,169.341C143.867,169.341 145.909,168.935 147.73,168.124C149.551,167.313 151.104,166.204 152.389,164.797L157.529,172.599C156.642,173.762 155.418,174.925 153.858,176.088C152.297,177.25 150.43,178.199 148.258,178.933C146.085,179.668 143.576,180.035 140.731,180.035C137.334,180.035 134.328,179.515 131.712,178.474C129.095,177.434 126.885,175.927 125.079,173.953C123.274,171.98 121.897,169.585 120.948,166.77C120,163.955 119.526,160.742 119.526,157.132L119.526,153.047C119.526,149.008 119.984,145.466 120.902,142.421C121.82,139.377 123.121,136.814 124.804,134.733C126.487,132.652 128.56,131.1 131.023,130.074C133.486,129.049 136.278,128.537 139.4,128.537C142.521,128.537 145.267,129.049 147.638,130.074C150.01,131.1 151.976,132.63 153.536,134.664C155.097,136.699 156.275,139.216 157.07,142.215C157.866,145.213 158.264,148.702 158.264,152.679L158.264,158.554L132.45,158.554ZM132.522,149.512L145.642,149.512L145.642,148.365C145.642,146.345 145.428,144.655 144.999,143.293C144.571,141.932 143.898,140.914 142.98,140.241C142.062,139.568 140.838,139.231 139.308,139.231C138.023,139.231 136.936,139.491 136.049,140.012C135.162,140.532 134.458,141.343 133.938,142.444C133.417,143.546 133.035,144.976 132.79,146.736C132.672,147.582 132.583,148.507 132.522,149.512ZM175.731,146.245L175.731,179.117L162.879,179.117L162.879,129.455L174.997,129.455L175.356,134.864L175.364,134.848C176.373,132.844 177.59,131.291 179.013,130.189C180.435,129.088 182.05,128.537 183.855,128.537C184.467,128.537 185.117,128.59 185.806,128.698C186.494,128.805 187.037,128.935 187.435,129.088L187.251,141.893C186.67,141.771 185.974,141.679 185.163,141.618C184.352,141.557 183.641,141.526 183.029,141.526C181.591,141.526 180.367,141.748 179.357,142.192C178.347,142.635 177.513,143.293 176.855,144.165C176.405,144.762 176.031,145.455 175.731,146.245ZM215.137,175.153C214.169,176.41 213.068,177.448 211.833,178.268C210.058,179.446 207.916,180.035 205.407,180.035C202.837,180.035 200.519,179.515 198.453,178.474C196.388,177.434 194.629,175.896 193.175,173.862C191.722,171.827 190.612,169.318 189.847,166.334C189.082,163.351 188.7,159.916 188.7,156.03L188.7,152.725C188.7,148.686 189.082,145.152 189.847,142.123C190.612,139.094 191.714,136.569 193.152,134.55C194.59,132.53 196.357,131.023 198.453,130.029C200.549,129.034 202.898,128.537 205.499,128.537C208.222,128.537 210.502,129.126 212.338,130.304C213.737,131.202 214.937,132.372 215.937,133.812L216.423,129.455L228.081,129.455L228.081,179.117C228.081,183.646 227.216,187.356 225.488,190.247C223.759,193.139 221.357,195.266 218.282,196.627C215.206,197.989 211.619,198.67 207.518,198.67C205.958,198.67 204.206,198.456 202.263,198.027C200.32,197.599 198.446,196.949 196.64,196.076C194.835,195.204 193.351,194.156 192.188,192.932L196.549,184.028C197.742,185.221 199.303,186.239 201.23,187.08C203.158,187.922 205.055,188.343 206.922,188.343C208.727,188.343 210.234,188.06 211.443,187.493C212.651,186.927 213.569,185.971 214.197,184.625C214.824,183.278 215.137,181.473 215.137,179.209L215.137,175.153ZM215.137,142.481C215.092,142.406 215.046,142.333 215,142.261C214.388,141.312 213.6,140.578 212.636,140.057C211.672,139.537 210.548,139.277 209.262,139.277C207.947,139.277 206.815,139.537 205.866,140.057C204.917,140.578 204.129,141.381 203.502,142.467C202.875,143.553 202.401,144.946 202.079,146.644C201.758,148.342 201.597,150.369 201.597,152.725L201.597,156.03C201.597,158.356 201.743,160.352 202.033,162.02C202.324,163.687 202.775,165.049 203.387,166.105C203.999,167.16 204.787,167.941 205.751,168.446C206.715,168.95 207.855,169.203 209.171,169.203C211.037,169.203 212.529,168.767 213.646,167.895C214.22,167.447 214.717,166.909 215.137,166.283L215.137,142.481ZM245.201,179.669L230.86,129.455L244.63,129.455L250.868,158.268L257.665,129.455L271.067,129.455L254.728,186.553C254.36,187.807 253.856,189.161 253.213,190.615C252.57,192.068 251.721,193.445 250.666,194.745C249.61,196.046 248.287,197.109 246.695,197.935C245.104,198.762 243.192,199.175 240.958,199.175C239.826,199.175 238.916,199.106 238.227,198.968C237.539,198.83 236.674,198.609 235.634,198.303L235.634,188.297C235.909,188.297 236.177,188.304 236.437,188.32C236.697,188.335 236.95,188.343 237.194,188.343C238.633,188.343 239.78,188.151 240.637,187.769C241.494,187.386 242.19,186.797 242.725,186.002C243.261,185.206 243.712,184.212 244.079,183.018L245.201,179.669ZM287.938,155.571L287.938,179.117L274.49,179.117L274.49,112.289L297.255,112.289C301.753,112.289 305.616,113.237 308.845,115.135C312.073,117.032 314.559,119.64 316.303,122.96C318.047,126.28 318.919,130.082 318.919,134.366C318.919,138.68 318.047,142.421 316.303,145.588C314.559,148.755 312.073,151.211 308.845,152.955C305.616,154.699 301.753,155.571 297.255,155.571L287.938,155.571ZM287.938,144.418L297.255,144.418C299.183,144.418 300.744,143.989 301.937,143.133C303.13,142.276 304.002,141.09 304.553,139.575C305.104,138.061 305.379,136.355 305.379,134.458C305.379,132.53 305.104,130.725 304.553,129.042C304.002,127.359 303.13,126.005 301.937,124.98C300.744,123.955 299.183,123.442 297.255,123.442L287.938,123.442L287.938,144.418ZM337.947,108.617L337.947,179.117L325.05,179.117L325.05,108.617L337.947,108.617ZM369.804,174.57C368.667,176.129 367.305,177.377 365.718,178.314C363.775,179.461 361.488,180.035 358.856,180.035C356.837,180.035 354.978,179.691 353.28,179.002C351.582,178.314 350.12,177.227 348.897,175.743C347.673,174.259 346.716,172.347 346.028,170.006C345.339,167.665 344.995,164.858 344.995,161.584L344.995,129.455L357.893,129.455L357.893,161.676C357.893,163.022 358.007,164.177 358.237,165.141C358.466,166.105 358.803,166.893 359.247,167.505C359.69,168.117 360.203,168.553 360.784,168.813C361.366,169.073 362.023,169.203 362.758,169.203C364.777,169.203 366.376,168.675 367.554,167.619C368.271,166.978 368.86,166.189 369.321,165.253L369.321,129.455L382.219,129.455L382.219,179.117L370.102,179.117L369.804,174.57ZM410.747,165.715C410.747,164.858 410.457,164.093 409.875,163.42C409.294,162.747 408.376,162.05 407.121,161.331C405.867,160.612 404.199,159.809 402.119,158.922C399.854,158.004 397.85,157.055 396.106,156.076C394.362,155.097 392.885,154.011 391.677,152.817C390.468,151.624 389.558,150.262 388.946,148.732C388.334,147.202 388.028,145.458 388.028,143.5C388.028,141.388 388.418,139.438 389.198,137.648C389.978,135.858 391.103,134.282 392.572,132.92C394.04,131.559 395.838,130.488 397.965,129.707C400.091,128.927 402.486,128.537 405.148,128.537C408.881,128.537 412.086,129.187 414.764,130.488C417.441,131.788 419.499,133.601 420.937,135.927C422.375,138.252 423.094,140.96 423.094,144.051L410.243,144.051C410.243,142.949 410.074,141.962 409.738,141.09C409.401,140.218 408.858,139.537 408.108,139.048C407.359,138.558 406.356,138.313 405.102,138.313C404.184,138.313 403.365,138.512 402.646,138.91C401.927,139.308 401.361,139.836 400.948,140.493C400.535,141.151 400.328,141.924 400.328,142.811C400.328,143.484 400.474,144.081 400.765,144.601C401.055,145.122 401.522,145.626 402.164,146.116C402.807,146.606 403.671,147.118 404.758,147.654C405.844,148.189 407.183,148.778 408.774,149.421C412.078,150.645 414.794,151.96 416.921,153.368C419.047,154.776 420.631,156.42 421.671,158.302C422.712,160.184 423.232,162.502 423.232,165.256C423.232,167.459 422.811,169.463 421.97,171.268C421.128,173.074 419.912,174.634 418.321,175.95C416.73,177.266 414.825,178.276 412.606,178.979C410.388,179.683 407.917,180.035 405.194,180.035C401.185,180.035 397.804,179.239 395.05,177.648C392.296,176.057 390.216,174.015 388.808,171.521C387.4,169.027 386.697,166.434 386.697,163.741L398.906,163.741C398.967,165.393 399.28,166.686 399.847,167.619C400.413,168.553 401.185,169.203 402.164,169.57C403.144,169.937 404.23,170.121 405.423,170.121C406.617,170.121 407.603,169.96 408.384,169.639C409.164,169.318 409.753,168.813 410.151,168.124C410.549,167.436 410.747,166.633 410.747,165.715ZM476.342,161.538C476.342,160.345 476.235,159.258 476.021,158.279C475.806,157.3 475.355,156.397 474.667,155.571C473.978,154.745 472.984,153.919 471.683,153.093C470.383,152.266 468.692,151.41 466.611,150.522C464.133,149.482 461.731,148.373 459.405,147.195C457.08,146.017 454.984,144.647 453.117,143.087C451.251,141.526 449.774,139.683 448.688,137.556C447.602,135.429 447.059,132.928 447.059,130.052C447.059,127.236 447.571,124.681 448.596,122.387C449.621,120.092 451.082,118.126 452.979,116.489C454.877,114.852 457.103,113.589 459.658,112.702C462.213,111.815 465.066,111.371 468.218,111.371C472.502,111.371 476.212,112.258 479.348,114.033C482.485,115.808 484.917,118.24 486.646,121.331C488.375,124.421 489.239,127.971 489.239,131.979L475.837,131.979C475.837,130.082 475.569,128.407 475.034,126.953C474.498,125.5 473.649,124.36 472.486,123.534C471.324,122.708 469.824,122.295 467.988,122.295C466.275,122.295 464.86,122.639 463.743,123.327C462.626,124.016 461.8,124.949 461.264,126.127C460.729,127.305 460.461,128.629 460.461,130.097C460.461,131.199 460.729,132.186 461.264,133.058C461.8,133.93 462.542,134.71 463.49,135.399C464.439,136.087 465.563,136.753 466.864,137.395C468.164,138.038 469.595,138.665 471.155,139.277C474.185,140.47 476.862,141.779 479.188,143.201C481.513,144.624 483.456,146.215 485.017,147.975C486.577,149.734 487.755,151.716 488.551,153.919C489.346,156.122 489.744,158.631 489.744,161.446C489.744,164.231 489.262,166.763 488.298,169.042C487.334,171.322 485.935,173.28 484.099,174.917C482.263,176.554 480.052,177.817 477.466,178.704C474.881,179.591 471.997,180.035 468.814,180.035C465.724,180.035 462.802,179.599 460.048,178.727C457.294,177.855 454.869,176.524 452.773,174.734C450.677,172.944 449.032,170.664 447.839,167.895C446.646,165.126 446.049,161.844 446.049,158.05L459.497,158.05C459.497,160.069 459.696,161.79 460.094,163.213C460.492,164.636 461.104,165.768 461.93,166.61C462.756,167.451 463.773,168.078 464.982,168.491C466.191,168.905 467.575,169.111 469.136,169.111C470.91,169.111 472.326,168.775 473.381,168.101C474.437,167.428 475.194,166.526 475.653,165.393C476.112,164.261 476.342,162.976 476.342,161.538ZM507.854,142.749L507.854,179.117L495.002,179.117L495.002,108.617L507.854,108.617L507.854,133.806C509.001,132.375 510.309,131.215 511.778,130.327C513.752,129.134 515.932,128.537 518.319,128.537C520.369,128.537 522.235,128.889 523.918,129.593C525.601,130.296 527.062,131.398 528.302,132.897C529.541,134.397 530.497,136.378 531.17,138.841C531.843,141.304 532.18,144.28 532.18,147.768L532.18,179.117L519.283,179.117L519.283,147.677C519.283,145.535 519.068,143.852 518.64,142.628C518.212,141.404 517.569,140.539 516.712,140.034C515.855,139.53 514.784,139.277 513.499,139.277C512.122,139.277 510.952,139.614 509.988,140.287C509.122,140.892 508.411,141.712 507.854,142.749ZM561.303,175.219C560.977,175.661 560.626,176.088 560.25,176.501C559.301,177.541 558.131,178.39 556.738,179.048C555.346,179.706 553.701,180.035 551.804,180.035C549.142,180.035 546.71,179.423 544.506,178.199C542.303,176.975 540.567,175.262 539.297,173.058C538.027,170.855 537.392,168.239 537.392,165.21C537.392,162.701 537.798,160.429 538.609,158.394C539.419,156.359 540.636,154.63 542.257,153.207C543.879,151.784 545.929,150.691 548.408,149.926C550.886,149.161 553.793,148.778 557.129,148.778L560.663,148.778L560.663,144.739C560.663,143.24 560.487,142.046 560.135,141.159C559.783,140.272 559.263,139.621 558.574,139.208C557.886,138.795 557.052,138.589 556.073,138.589C554.971,138.589 554.053,138.818 553.319,139.277C552.585,139.736 552.041,140.394 551.69,141.251C551.338,142.108 551.162,143.133 551.162,144.326L538.264,144.326C538.264,142.184 538.677,140.157 539.504,138.244C540.33,136.332 541.546,134.649 543.152,133.196C544.759,131.742 546.679,130.602 548.913,129.776C551.146,128.95 553.656,128.537 556.44,128.537C559.745,128.537 562.682,129.095 565.253,130.212C567.823,131.329 569.858,133.096 571.357,135.513C572.856,137.931 573.606,141.067 573.606,144.923L573.606,167.046C573.606,169.83 573.751,172.095 574.042,173.839C574.333,175.583 574.769,177.082 575.35,178.337L575.35,179.117L562.407,179.117C561.949,178.032 561.581,176.732 561.303,175.219ZM560.663,156.489L557.542,156.489C556.318,156.489 555.254,156.688 554.352,157.086C553.449,157.484 552.692,158.042 552.08,158.761C551.468,159.48 551.016,160.314 550.726,161.262C550.435,162.211 550.29,163.221 550.29,164.292C550.29,165.485 550.458,166.495 550.795,167.321C551.131,168.147 551.636,168.775 552.309,169.203C552.982,169.631 553.778,169.845 554.696,169.845C556.103,169.845 557.327,169.555 558.368,168.973C559.393,168.401 560.158,167.709 560.663,166.899L560.663,156.489ZM593.093,175.03L593.093,198.211L580.287,198.211L580.287,129.455L592.129,129.455L592.59,134.027C593.684,132.45 594.961,131.194 596.42,130.258C598.21,129.111 600.345,128.537 602.823,128.537C605.516,128.537 607.864,129.026 609.869,130.006C611.873,130.985 613.54,132.461 614.872,134.435C616.203,136.408 617.205,138.91 617.878,141.939C618.551,144.969 618.888,148.518 618.888,152.588L618.888,155.892C618.888,159.778 618.551,163.213 617.878,166.197C617.205,169.18 616.203,171.704 614.872,173.77C613.54,175.835 611.88,177.396 609.892,178.451C607.903,179.507 605.577,180.035 602.915,180.035C600.436,180.035 598.302,179.446 596.512,178.268C595.226,177.422 594.086,176.342 593.093,175.03ZM593.093,165.938C593.528,166.742 594.079,167.425 594.745,167.987C595.816,168.889 597.269,169.341 599.105,169.341C600.421,169.341 601.515,169.065 602.387,168.514C603.259,167.964 603.971,167.137 604.521,166.036C605.072,164.934 605.462,163.542 605.692,161.859C605.921,160.176 606.036,158.187 606.036,155.892L606.036,152.588C606.036,150.201 605.906,148.166 605.646,146.483C605.386,144.8 604.98,143.423 604.43,142.352C603.879,141.281 603.16,140.501 602.272,140.012C601.385,139.522 600.299,139.277 599.014,139.277C597.759,139.277 596.665,139.522 595.732,140.012C594.799,140.501 594.041,141.213 593.46,142.146C593.331,142.353 593.208,142.57 593.093,142.797L593.093,165.938ZM635.694,158.554C635.761,160.232 635.95,161.678 636.263,162.892C636.661,164.437 637.25,165.692 638.03,166.656C638.81,167.619 639.767,168.308 640.899,168.721C642.031,169.134 643.347,169.341 644.846,169.341C647.11,169.341 649.153,168.935 650.973,168.124C652.794,167.313 654.347,166.204 655.632,164.797L660.773,172.599C659.885,173.762 658.661,174.925 657.101,176.088C655.54,177.25 653.674,178.199 651.501,178.933C649.329,179.668 646.82,180.035 643.974,180.035C640.577,180.035 637.571,179.515 634.955,178.474C632.339,177.434 630.128,175.927 628.323,173.953C626.517,171.98 625.14,169.585 624.192,166.77C623.243,163.955 622.769,160.742 622.769,157.132L622.769,153.047C622.769,149.008 623.228,145.466 624.146,142.421C625.064,139.377 626.364,136.814 628.047,134.733C629.73,132.652 631.803,131.1 634.266,130.074C636.73,129.049 639.522,128.537 642.643,128.537C645.764,128.537 648.51,129.049 650.882,130.074C653.253,131.1 655.219,132.63 656.78,134.664C658.34,136.699 659.518,139.216 660.314,142.215C661.109,145.213 661.507,148.702 661.507,152.679L661.507,158.554L635.694,158.554ZM635.765,149.512L648.885,149.512L648.885,148.365C648.885,146.345 648.671,144.655 648.242,143.293C647.814,141.932 647.141,140.914 646.223,140.241C645.305,139.568 644.081,139.231 642.551,139.231C641.266,139.231 640.18,139.491 639.292,140.012C638.405,140.532 637.701,141.343 637.181,142.444C636.661,143.546 636.278,144.976 636.033,146.736C635.916,147.582 635.826,148.507 635.765,149.512ZM714.204,179.117L700.434,179.117L681.203,112.289L695.569,112.289L707.298,161.123L719.069,112.289L733.573,112.289L714.204,179.117ZM749.939,129.455L749.939,179.117L737.041,179.117L737.041,129.455L749.939,129.455ZM736.445,116.557C736.445,114.568 737.079,112.931 738.349,111.646C739.619,110.361 741.34,109.719 743.513,109.719C745.655,109.719 747.353,110.361 748.608,111.646C749.862,112.931 750.489,114.568 750.489,116.557C750.489,118.546 749.862,120.191 748.608,121.491C747.353,122.792 745.655,123.442 743.513,123.442C741.34,123.442 739.619,122.792 738.349,121.491C737.079,120.191 736.445,118.546 736.445,116.557ZM769.04,158.554C769.107,160.232 769.296,161.678 769.609,162.892C770.007,164.437 770.596,165.692 771.376,166.656C772.156,167.619 773.113,168.308 774.245,168.721C775.377,169.134 776.693,169.341 778.192,169.341C780.456,169.341 782.499,168.935 784.319,168.124C786.14,167.313 787.693,166.204 788.978,164.797L794.119,172.599C793.231,173.762 792.007,174.925 790.447,176.088C788.886,177.25 787.02,178.199 784.847,178.933C782.675,179.668 780.166,180.035 777.32,180.035C773.923,180.035 770.917,179.515 768.301,178.474C765.685,177.434 763.474,175.927 761.669,173.953C759.863,171.98 758.486,169.585 757.538,166.77C756.589,163.955 756.115,160.742 756.115,157.132L756.115,153.047C756.115,149.008 756.574,145.466 757.492,142.421C758.41,139.377 759.71,136.814 761.393,134.733C763.076,132.652 765.149,131.1 767.612,130.074C770.076,129.049 772.868,128.537 775.989,128.537C779.11,128.537 781.856,129.049 784.228,130.074C786.599,131.1 788.565,132.63 790.126,134.664C791.686,136.699 792.864,139.216 793.66,142.215C794.455,145.213 794.853,148.702 794.853,152.679L794.853,158.554L769.04,158.554ZM769.111,149.512L782.231,149.512L782.231,148.365C782.231,146.345 782.017,144.655 781.588,143.293C781.16,141.932 780.487,140.914 779.569,140.241C778.651,139.568 777.427,139.231 775.897,139.231C774.612,139.231 773.526,139.491 772.638,140.012C771.751,140.532 771.047,141.343 770.527,142.444C770.007,143.546 769.624,144.976 769.379,146.736C769.262,147.582 769.172,148.507 769.111,149.512ZM817.369,179.117L806.629,179.117L796.302,129.455L808.648,129.455L813.18,157.38L819.802,129.455L828.981,129.455L835.664,157.423L840.135,129.455L852.573,129.455L842.2,179.117L831.506,179.117L824.428,150.35L817.369,179.117ZM867.91,158.554C867.977,160.232 868.167,161.678 868.48,162.892C868.877,164.437 869.467,165.692 870.247,166.656C871.027,167.619 871.983,168.308 873.115,168.721C874.248,169.134 875.563,169.341 877.063,169.341C879.327,169.341 881.369,168.935 883.19,168.124C885.011,167.313 886.564,166.204 887.849,164.797L892.989,172.599C892.102,173.762 890.878,174.925 889.318,176.088C887.757,177.25 885.89,178.199 883.718,178.933C881.545,179.668 879.036,180.035 876.191,180.035C872.794,180.035 869.788,179.515 867.172,178.474C864.555,177.434 862.345,175.927 860.539,173.953C858.734,171.98 857.357,169.585 856.408,166.77C855.46,163.955 854.986,160.742 854.986,157.132L854.986,153.047C854.986,149.008 855.445,145.466 856.362,142.421C857.28,139.377 858.581,136.814 860.264,134.733C861.947,132.652 864.02,131.1 866.483,130.074C868.946,129.049 871.738,128.537 874.86,128.537C877.981,128.537 880.727,129.049 883.098,130.074C885.47,131.1 887.436,132.63 888.996,134.664C890.557,136.699 891.735,139.216 892.53,142.215C893.326,145.213 893.724,148.702 893.724,152.679L893.724,158.554L867.91,158.554ZM867.982,149.512L881.102,149.512L881.102,148.365C881.102,146.345 880.888,144.655 880.459,143.293C880.031,141.932 879.358,140.914 878.44,140.241C877.522,139.568 876.298,139.231 874.768,139.231C873.483,139.231 872.396,139.491 871.509,140.012C870.622,140.532 869.918,141.343 869.398,142.444C868.877,143.546 868.495,144.976 868.25,146.736C868.132,147.582 868.043,148.507 867.982,149.512ZM911.191,146.245L911.191,179.117L898.339,179.117L898.339,129.455L910.457,129.455L910.816,134.864L910.824,134.848C911.834,132.844 913.05,131.291 914.473,130.189C915.896,129.088 917.51,128.537 919.315,128.537C919.927,128.537 920.577,128.59 921.266,128.698C921.954,128.805 922.497,128.935 922.895,129.088L922.711,141.893C922.13,141.771 921.434,141.679 920.623,141.618C919.812,141.557 919.101,141.526 918.489,141.526C917.051,141.526 915.827,141.748 914.817,142.192C913.807,142.635 912.973,143.293 912.315,144.165C911.865,144.762 911.491,145.455 911.191,146.245Z" style="fill:#f7ca3e;"/></g></svg>