<?xml version="1.0" encoding="UTF-8" standalone="no"?><!DOCTYPE svg PUBLIC "-//W3C//DTD SVG 1.1//EN" "http://www.w3.org/Graphics/SVG/1.1/DTD/svg11.dtd"><svg width="1024px" height="220px" version="1.1" xmlns="http://www.w3.org/2000/svg" xmlns:xlink="http://www.w3.org/1999/xlink" xml:space="preserve" xmlns:serif="http://www.serif.com/" style="fill-rule:evenodd;clip-rule:evenodd;stroke-linejoin:round;stroke-miterlimit:2;"><g id="V3"><g id="Logo"><g><path id="New-Logo-2" serif:id="New Logo 2" d="M422.973,59.123L415.863,59.123L415.863,78.72L404.261,78.72L404.261,21.318L424.731,21.318C429.097,21.318 432.748,22.135 435.71,23.636C438.96,25.284 441.389,27.603 443.037,30.549C444.611,33.362 445.44,36.625 445.44,40.357C445.44,44.162 444.598,47.435 443.018,50.2C441.354,53.112 438.91,55.377 435.644,56.948C435.517,57.009 435.389,57.069 435.26,57.128L448.427,78.72L434.805,78.72L422.981,59.135L422.973,59.123ZM415.863,47.761L424.731,47.761C427.059,47.761 428.972,47.461 430.435,46.688C431.568,46.09 432.429,45.321 432.95,44.311C433.555,43.14 433.839,41.842 433.839,40.425C433.839,38.922 433.546,37.545 432.925,36.303C432.394,35.24 431.521,34.421 430.366,33.784C428.921,32.988 427.03,32.681 424.731,32.681L415.863,32.681L415.863,47.761Z" style="fill:#ed1c2d;"/><path id="New-Logo-21" serif:id="New Logo 2" d="M400.621,21.318L400.621,32.716L387.25,32.716L381.148,21.318L400.621,21.318ZM400.621,36.356L400.621,47.753L390.219,47.753L384.117,36.356L400.621,36.356Z" style="fill:#0082c4;"/></g><path id="Rubicell-3" serif:id="Rubicell 3" d="M576.16,77.672C572.968,78.368 571.228,78.531 569.96,78.224C568.548,77.877 564.927,76.363 564.354,75.871C563.372,75.053 560.835,71.575 560.406,70.429C559.546,68.178 559.137,62.327 559.751,60.895C559.935,60.486 560.242,59.647 560.467,59.054C560.671,58.46 561.04,57.683 561.306,57.315C561.572,56.947 562.165,55.739 562.656,54.614C563.147,53.468 563.843,52.241 564.211,51.852C564.579,51.463 565.234,50.481 565.643,49.662C566.768,47.515 569.94,44.609 572.517,43.381C576.262,41.602 579.679,43.157 582.317,47.862C583.095,49.233 583.259,49.724 583.422,51.238C583.689,53.448 583.545,54.041 582.706,54.389C581.519,54.9 581.029,54.429 580.477,52.282C580.312,51.565 579.964,51.075 579.003,50.154C577.08,48.292 575.771,47.821 574.257,48.455C573.336,48.844 570.533,51.647 569.612,53.1C569.203,53.734 568.466,54.798 567.976,55.494C567.341,56.353 566.952,57.151 566.707,58.092C566.523,58.828 566.093,59.933 565.766,60.507C565.213,61.509 565.152,61.754 565.05,64.414C564.968,66.869 565.009,67.442 565.356,68.649C566.073,71.022 567.035,71.472 571.597,71.534C574.973,71.596 578.574,71.104 579.924,70.409C580.456,70.122 581.56,69.774 582.379,69.652C583.197,69.508 584.098,69.263 584.364,69.099C584.834,68.793 584.834,68.751 584.711,66.399C584.629,65.028 584.67,63.207 584.793,62.082C584.916,61.018 585.1,59.361 585.182,58.399C585.284,57.437 585.55,56.149 585.816,55.534C586.062,54.921 586.348,54.123 586.451,53.755C586.573,53.366 587.105,52.711 587.841,52.077C588.804,51.238 589.09,50.849 589.274,50.092C589.458,49.397 589.765,48.946 590.461,48.313C590.972,47.842 591.79,47.065 592.261,46.594C592.895,45.939 593.754,45.448 595.555,44.65C597.969,43.607 598.01,43.607 600.179,43.586C602.122,43.566 602.409,43.607 602.941,44.016C603.247,44.261 604.189,44.834 604.987,45.305C605.989,45.857 606.501,46.287 606.563,46.594C606.91,48.128 607.524,53.263 607.422,53.714C607.36,54.02 606.951,55.044 606.48,56.025C605.805,57.437 605.478,57.887 604.741,58.399C603.882,58.992 603.371,59.565 601.448,62.143C600.977,62.756 600.302,63.33 599.667,63.657C599.095,63.943 598.276,64.537 597.847,64.966C597.151,65.683 596.946,65.764 596.066,65.764C595.002,65.764 593.141,66.583 592.22,67.442C591.729,67.912 591.586,68.976 591.934,69.631C592.343,70.368 594.307,71.677 595.555,72.005C596.762,72.353 596.803,72.353 598.726,71.841C600.015,71.472 600.915,71.35 601.488,71.431C602.061,71.493 602.532,71.431 602.982,71.207C603.78,70.777 606.91,70.081 607.933,70.061C608.444,70.061 608.915,69.876 609.447,69.447C610.184,68.874 610.306,68.834 612.127,68.834C613.948,68.834 614.03,68.813 614.46,68.281C614.889,67.729 614.91,67.585 614.787,64.946C614.705,63.432 614.603,59.626 614.542,56.496C614.439,51.177 614.46,50.706 614.849,49.438C615.217,48.272 615.258,47.555 615.237,44.588C615.217,42.604 615.319,40.538 615.462,39.781C615.871,37.551 616.321,35.628 616.628,34.809C616.792,34.4 616.915,33.745 616.915,33.377C616.915,32.395 617.528,30.861 618.265,30.063C619.451,28.753 620.495,29.244 621.621,31.617C622.459,33.397 622.705,35.218 622.582,38.635C622.439,42.42 622.071,46.839 621.825,47.76C621.723,48.148 621.621,49.724 621.621,51.238C621.621,52.752 621.518,54.327 621.416,54.716C621.314,55.125 621.171,59.074 621.13,63.514C621.006,73.089 620.823,76.015 620.311,77.017C619.697,78.204 619.37,78.449 618.49,78.449C617.754,78.449 617.528,78.306 616.465,77.263C615.564,76.342 615.278,75.913 615.278,75.462C615.278,74.685 614.91,73.375 614.644,73.212C614.542,73.151 614.234,73.232 613.989,73.395C613.744,73.56 613.17,73.805 612.72,73.948C612.27,74.091 611.554,74.521 611.124,74.91C610.102,75.81 609.59,75.994 607.953,75.994C607.196,75.994 606.071,76.137 605.458,76.301C604.843,76.485 603.739,76.751 603.003,76.894C602.266,77.038 601.14,77.365 600.506,77.61C598.645,78.306 595.944,78.224 593.427,77.406C590.42,76.444 589.54,75.994 588.517,74.93C588.006,74.378 587.412,73.948 587.228,73.948C587.044,73.948 586.123,74.358 585.182,74.848C584.037,75.462 582.993,75.851 582.031,76.015C581.254,76.137 580.251,76.424 579.842,76.628C579.433,76.833 577.776,77.303 576.16,77.672ZM591.483,60.486C591.913,60.977 593.202,60.977 594.655,60.465C595.616,60.138 596.148,59.709 598.726,57.11C602.859,52.957 603.8,50.993 602.45,49.376C601.304,48.026 599.381,47.617 597.703,48.394C596.312,49.008 594.675,50.501 594.389,51.402C594.266,51.811 593.713,52.63 593.182,53.202C592.65,53.755 592.158,54.409 592.097,54.635C591.074,58.03 590.87,59.811 591.483,60.486ZM554.165,77.181C553.695,77.529 553.613,77.508 552.917,76.915C552.099,76.219 551.751,75.4 551.342,73.232C551.157,72.229 550.81,70.757 550.565,69.959C549.991,68.076 549.991,64.271 550.585,59.013C550.81,56.926 551.076,54.348 551.157,53.284C551.301,51.013 551.914,47.801 552.344,46.962C552.529,46.635 553.122,45.96 553.715,45.427C554.574,44.65 554.902,44.486 555.557,44.486C556.661,44.486 557.868,45.305 558.421,46.471C558.83,47.31 558.851,47.494 558.625,49.253C558.503,50.297 558.36,51.647 558.298,52.282C558.236,52.895 557.95,53.877 557.684,54.45C557.418,55.023 557.153,56.046 557.07,56.701C556.989,57.356 556.805,58.665 556.661,59.626C556.518,60.588 556.272,62.798 556.15,64.537C555.434,74.276 555.086,76.485 554.165,77.181ZM565.315,39.535C564.784,40.067 562.288,39.638 561.469,38.881C560.856,38.307 560.037,38.042 557.95,37.735C556.641,37.551 556.068,37.551 554.574,37.837C552.877,38.164 552.795,38.164 552.283,37.776C551.997,37.571 551.649,37.08 551.526,36.691C550.524,33.664 550.565,33.929 550.974,33.09C551.485,32.006 552.488,31.556 554.37,31.535C555.188,31.535 556.355,31.658 556.968,31.801C558.953,32.272 561.346,33.049 561.858,33.377C564.314,34.973 566.318,38.533 565.315,39.535ZM639.666,79.656C638.479,80.291 635.758,79.247 634.06,77.488C633.058,76.424 630.848,72.475 630.316,70.757C629.763,68.976 629.395,65.989 629.15,61.366C628.924,57.171 628.945,56.782 629.272,55.739C629.518,55.003 629.64,54.082 629.62,53.018C629.62,52.138 629.743,50.747 629.907,49.949C630.07,49.131 630.214,48.107 630.214,47.658C630.214,47.208 630.398,45.775 630.623,44.486C630.848,43.198 631.032,41.888 631.032,41.602C631.032,41.315 631.318,40.558 631.645,39.924C632.116,39.044 632.26,38.492 632.26,37.674C632.26,37.08 632.382,36.119 632.546,35.566C632.71,35.014 632.893,34.154 632.976,33.643C633.037,33.131 633.426,31.74 633.815,30.533C634.203,29.326 634.613,27.812 634.735,27.157C635.022,25.684 635.267,25.213 636.536,23.884C637.19,23.167 637.702,22.799 638.029,22.799C638.806,22.799 639.707,23.495 640.137,24.415C640.566,25.377 640.566,25.316 639.502,30.308C638.991,32.661 638.95,33.131 639.154,33.888C639.359,34.604 639.339,35.034 639.072,36.2C638.909,36.998 638.622,37.919 638.438,38.246C638.275,38.594 638.111,39.433 638.07,40.128C638.029,40.824 637.865,41.847 637.681,42.379C637.415,43.157 637.354,43.77 637.477,45.223C637.579,46.819 637.538,47.269 637.19,48.292C636.904,49.09 636.76,49.99 636.76,51.054C636.76,51.893 636.638,54.02 636.474,55.76C635.983,61.059 635.922,62.921 636.147,65.048C636.27,66.174 636.453,68.24 636.536,69.652C636.74,73.13 637.292,74.255 639.113,75.073C640.259,75.565 640.852,76.342 640.852,77.263C640.832,77.979 640.116,79.411 639.666,79.656ZM471.427,78.92C470.424,80.147 469.831,80.004 467.805,78.142C465.841,76.322 465.452,75.421 465.432,72.823C465.411,70.081 466.066,65.764 466.864,63.432C467.785,60.813 467.949,58.787 467.478,56.353C466.966,53.796 465.964,49.929 465.371,48.292C464.573,46.062 464.307,44.753 464.286,42.87C464.286,41.213 464.307,41.152 464.982,40.476C465.371,40.088 465.862,39.781 466.087,39.781C466.578,39.781 468.173,41.008 469.238,42.195C470.036,43.075 470.731,44.303 471.345,45.98C471.795,47.167 472.511,47.801 473.146,47.576C473.37,47.494 473.862,46.9 474.209,46.287C474.536,45.673 475.253,44.732 475.785,44.22C476.378,43.648 477.053,42.665 477.524,41.724C478.199,40.313 480.245,37.674 480.982,37.264C481.145,37.183 481.636,36.568 482.086,35.914C482.516,35.239 483.723,33.95 484.746,33.009C486.935,31.004 490.331,29.141 491.825,29.141C493.667,29.141 494.914,31.167 494.055,32.804C493.83,33.254 493.298,33.602 491.784,34.256C488.367,35.75 484.93,38.696 483.089,41.724C482.475,42.707 481.452,44.118 480.817,44.814C480.081,45.632 479.57,46.41 479.427,46.941C479.304,47.412 478.874,48.128 478.485,48.558C477.769,49.376 477.401,50.256 476.358,53.693C476.03,54.757 475.539,56.23 475.253,56.967C474.353,59.32 474.025,61.284 474.271,62.634C474.639,64.516 474.782,69.181 474.536,70.879C474.086,74.091 472.92,77.12 471.427,78.92ZM516.847,78.654C516.663,78.756 515.926,78.899 515.21,78.96C513.799,79.084 512.142,78.633 510.341,77.631C509.113,76.915 506.331,73.109 505.737,71.329C505.267,69.856 504.939,69.611 504.08,70.061C503.835,70.204 503.405,70.695 503.16,71.166C502.423,72.455 501.462,73.662 500.479,74.48C499.989,74.889 499.374,75.503 499.129,75.871C498.863,76.219 498.249,76.731 497.778,77.017C497.308,77.303 496.592,77.753 496.203,77.999C495.426,78.49 494.383,78.572 493.687,78.204C493.441,78.081 492.48,77.283 491.559,76.444C490.004,75.012 489.861,74.808 489.268,73.191C488.654,71.493 488.633,71.35 488.633,67.892C488.633,65.416 488.552,64.005 488.326,63.166C487.876,61.407 487.937,59.565 488.531,57.56C488.859,56.496 489.145,54.921 489.268,53.387C489.697,47.903 490.188,45.264 490.986,44.138C491.354,43.607 492.562,43.177 493.257,43.34C493.544,43.422 493.973,43.832 494.28,44.343C494.587,44.814 495.037,45.427 495.303,45.714C495.938,46.389 496.612,48.394 496.612,49.56C496.612,50.338 496.51,50.563 495.876,51.177C495.222,51.791 495.057,52.138 494.648,53.918C494.383,55.044 494.076,57.212 493.953,58.767C493.85,60.301 493.646,62.429 493.503,63.473C493.257,65.294 493.278,65.437 493.728,66.767C493.994,67.524 494.239,68.588 494.259,69.099C494.342,70.265 494.464,70.47 495.037,70.47C496.162,70.45 498.086,68.588 498.802,66.829C498.965,66.419 499.539,65.662 500.05,65.13C501.871,63.371 504.08,60.834 504.367,60.179C504.715,59.402 505.349,57.069 506.311,53.161C507.17,49.703 507.518,48.722 508.663,46.778C509.87,44.691 511.078,43.463 511.916,43.463C512.755,43.463 513.39,44.098 513.39,44.957C513.41,45.305 513.532,45.837 513.696,46.123C513.901,46.471 513.982,47.289 514.003,48.701C514.003,50.645 513.962,50.87 513.369,51.975C512.407,53.796 511.794,56.23 511.016,61.222C510.709,63.227 510.689,63.821 510.893,65.478C511.2,67.871 511.732,69.529 512.837,71.37C514.064,73.416 514.76,74.071 515.987,74.234C517.133,74.398 518.095,74.746 518.095,74.991C518.095,75.094 518.177,75.176 518.259,75.176C518.361,75.176 518.545,74.685 518.688,74.112C518.852,73.519 519.138,72.782 519.364,72.475C519.568,72.168 519.957,71.35 520.223,70.633C520.693,69.426 520.714,69.038 520.714,65.355C520.714,57.212 520.755,55.801 520.959,54.409C521.123,53.407 521.102,52.527 520.959,51.443C520.796,50.338 520.796,48.537 520.98,44.916C521.164,40.967 521.164,39.597 520.959,38.431C520.816,37.592 520.755,36.589 520.837,36.159C521.246,33.725 521.389,32.149 521.573,28.303C521.757,24.252 521.798,23.965 522.412,22.349C522.76,21.408 523.19,20.487 523.374,20.303C523.864,19.71 524.908,19.853 525.911,20.61C527.752,22.022 527.936,22.717 527.957,27.853C527.977,30.472 527.916,31.249 527.629,31.904C526.811,33.827 526.463,36.589 526.382,41.929C526.361,44.753 526.382,48.394 526.463,50.051C526.606,53.366 526.811,53.898 527.936,53.898C528.407,53.898 528.652,53.693 529.225,52.834C529.614,52.241 530.023,51.504 530.146,51.197C530.269,50.89 530.76,50.358 531.23,50.031C532.601,49.09 534.361,47.576 535.854,46.082C536.611,45.325 537.471,44.609 537.777,44.507C538.063,44.384 539.27,44.2 540.437,44.057C543.117,43.77 543.649,43.955 544.918,45.632C546.329,47.515 546.534,47.883 547.291,50.072C548.314,53.018 548.375,54.225 547.598,57.376C546.861,60.363 545.9,62.573 544.529,64.373C543.976,65.089 543.137,66.255 542.647,66.992C541.337,68.956 538.718,71.677 537.143,72.721C536.386,73.232 535.445,73.907 535.077,74.214C534.688,74.541 533.911,75.012 533.337,75.278C532.765,75.524 531.844,76.055 531.271,76.465C529.982,77.406 529.45,77.59 527.527,77.856C526.667,77.979 525.399,78.306 524.703,78.572C523.455,79.084 523.414,79.084 522.269,78.736C520.837,78.327 519.364,77.426 518.791,76.608L518.361,76.015L517.768,77.242C517.461,77.918 517.031,78.572 516.847,78.654ZM528.366,70.838C528.714,71.248 529.553,71.125 530.76,70.45C532.13,69.672 534.156,68.219 535.506,67.053C536.038,66.583 536.611,66.133 536.775,66.031C536.938,65.948 537.368,65.416 537.757,64.844C538.125,64.291 538.841,63.33 539.332,62.736C539.844,62.123 540.355,61.345 540.478,60.997C540.621,60.629 541.153,59.463 541.685,58.399C542.36,57.049 542.749,55.944 542.954,54.818C543.363,52.547 543.322,52.138 542.585,50.625C541.685,48.803 541.275,48.763 539.537,50.297C538.82,50.91 537.982,51.708 537.634,52.036C537.306,52.384 536.652,53.039 536.202,53.509C535.751,53.959 534.974,54.737 534.463,55.227C533.951,55.719 533.215,56.64 532.826,57.294C532.437,57.969 531.68,59.074 531.128,59.79C529.982,61.345 529.594,62.184 529.327,63.8C529.225,64.455 528.959,65.335 528.755,65.744C527.936,67.319 527.752,70.041 528.366,70.838Z" style="fill:#97999a;"/></g><path id="exploded" d="M51.193,179.117L12.868,179.117L12.868,112.289L51.102,112.289L51.102,123.442L26.316,123.442L26.316,139.369L47.292,139.369L47.292,150.155L26.316,150.155L26.316,168.01L51.193,168.01L51.193,179.117ZM68.156,142.979L68.156,179.117L55.258,179.117L55.258,129.455L67.284,129.455L67.689,134.379C69.041,132.599 70.62,131.21 72.424,130.212C74.444,129.095 76.723,128.537 79.263,128.537C81.191,128.537 82.958,128.873 84.564,129.547C86.171,130.22 87.555,131.291 88.718,132.76C89.881,134.228 90.784,136.171 91.426,138.589C92.069,141.006 92.39,143.989 92.39,147.539L92.39,179.117L79.493,179.117L79.493,147.447C79.493,145.305 79.278,143.645 78.85,142.467C78.422,141.289 77.787,140.463 76.945,139.989C76.104,139.514 75.025,139.277 73.709,139.277C72.485,139.277 71.399,139.614 70.451,140.287C69.536,140.936 68.771,141.833 68.156,142.979ZM110.711,158.554C110.778,160.232 110.967,161.678 111.28,162.892C111.678,164.437 112.267,165.692 113.047,166.656C113.827,167.619 114.784,168.308 115.916,168.721C117.048,169.134 118.364,169.341 119.863,169.341C122.127,169.341 124.17,168.935 125.99,168.124C127.811,167.313 129.364,166.204 130.649,164.797L135.79,172.599C134.902,173.762 133.678,174.925 132.118,176.088C130.557,177.25 128.691,178.199 126.518,178.933C124.346,179.668 121.837,180.035 118.991,180.035C115.594,180.035 112.588,179.515 109.972,178.474C107.356,177.434 105.145,175.927 103.339,173.953C101.534,171.98 100.157,169.585 99.209,166.77C98.26,163.955 97.786,160.742 97.786,157.132L97.786,153.047C97.786,149.008 98.245,145.466 99.163,142.421C100.081,139.377 101.381,136.814 103.064,134.733C104.747,132.652 106.82,131.1 109.283,130.074C111.747,129.049 114.539,128.537 117.66,128.537C120.781,128.537 123.527,129.049 125.899,130.074C128.27,131.1 130.236,132.63 131.797,134.664C133.357,136.699 134.535,139.216 135.331,142.215C136.126,145.213 136.524,148.702 136.524,152.679L136.524,158.554L110.711,158.554ZM110.782,149.512L123.902,149.512L123.902,148.365C123.902,146.345 123.688,144.655 123.259,143.293C122.831,141.932 122.158,140.914 121.24,140.241C120.322,139.568 119.098,139.231 117.568,139.231C116.283,139.231 115.197,139.491 114.309,140.012C113.422,140.532 112.718,141.343 112.198,142.444C111.678,143.546 111.295,144.976 111.05,146.736C110.933,147.582 110.843,148.507 110.782,149.512ZM153.991,146.245L153.991,179.117L141.14,179.117L141.14,129.455L153.257,129.455L153.616,134.864L153.624,134.848C154.634,132.844 155.85,131.291 157.273,130.189C158.696,129.088 160.31,128.537 162.115,128.537C162.727,128.537 163.377,128.59 164.066,128.698C164.754,128.805 165.297,128.935 165.695,129.088L165.512,141.893C164.93,141.771 164.234,141.679 163.423,141.618C162.612,141.557 161.901,141.526 161.289,141.526C159.851,141.526 158.627,141.748 157.617,142.192C156.607,142.635 155.774,143.293 155.116,144.165C154.666,144.762 154.291,145.455 153.991,146.245ZM193.398,175.153C192.43,176.41 191.328,177.448 190.093,178.268C188.318,179.446 186.176,180.035 183.667,180.035C181.097,180.035 178.779,179.515 176.714,178.474C174.648,177.434 172.889,175.896 171.435,173.862C169.982,171.827 168.873,169.318 168.108,166.334C167.343,163.351 166.96,159.916 166.96,156.03L166.96,152.725C166.96,148.686 167.343,145.152 168.108,142.123C168.873,139.094 169.974,136.569 171.412,134.55C172.851,132.53 174.618,131.023 176.714,130.029C178.81,129.034 181.158,128.537 183.759,128.537C186.482,128.537 188.762,129.126 190.598,130.304C191.998,131.202 193.197,132.372 194.197,133.812L194.683,129.455L206.341,129.455L206.341,179.117C206.341,183.646 205.477,187.356 203.748,190.247C202.019,193.139 199.617,195.266 196.542,196.627C193.467,197.989 189.879,198.67 185.779,198.67C184.218,198.67 182.466,198.456 180.523,198.027C178.58,197.599 176.706,196.949 174.901,196.076C173.095,195.204 171.611,194.156 170.449,192.932L174.809,184.028C176.002,185.221 177.563,186.239 179.491,187.08C181.418,187.922 183.315,188.343 185.182,188.343C186.987,188.343 188.494,188.06 189.703,187.493C190.912,186.927 191.83,185.971 192.457,184.625C193.084,183.278 193.398,181.473 193.398,179.209L193.398,175.153ZM193.398,142.481C193.353,142.406 193.307,142.333 193.26,142.261C192.648,141.312 191.86,140.578 190.896,140.057C189.932,139.537 188.808,139.277 187.523,139.277C186.207,139.277 185.075,139.537 184.126,140.057C183.178,140.578 182.39,141.381 181.762,142.467C181.135,143.553 180.661,144.946 180.34,146.644C180.018,148.342 179.858,150.369 179.858,152.725L179.858,156.03C179.858,158.356 180.003,160.352 180.294,162.02C180.584,163.687 181.036,165.049 181.648,166.105C182.26,167.16 183.048,167.941 184.012,168.446C184.975,168.95 186.115,169.203 187.431,169.203C189.297,169.203 190.789,168.767 191.906,167.895C192.48,167.447 192.977,166.909 193.398,166.283L193.398,142.481ZM223.461,179.669L209.121,129.455L222.89,129.455L229.128,158.268L235.925,129.455L249.328,129.455L232.988,186.553C232.621,187.807 232.116,189.161 231.473,190.615C230.831,192.068 229.982,193.445 228.926,194.745C227.87,196.046 226.547,197.109 224.956,197.935C223.365,198.762 221.452,199.175 219.218,199.175C218.086,199.175 217.176,199.106 216.487,198.968C215.799,198.83 214.935,198.609 213.894,198.303L213.894,188.297C214.17,188.297 214.437,188.304 214.697,188.32C214.957,188.335 215.21,188.343 215.455,188.343C216.893,188.343 218.04,188.151 218.897,187.769C219.754,187.386 220.45,186.797 220.985,186.002C221.521,185.206 221.972,184.212 222.339,183.018L223.461,179.669ZM266.198,155.571L266.198,179.117L252.75,179.117L252.75,112.289L275.516,112.289C280.014,112.289 283.877,113.237 287.105,115.135C290.333,117.032 292.819,119.64 294.563,122.96C296.308,126.28 297.18,130.082 297.18,134.366C297.18,138.68 296.308,142.421 294.563,145.588C292.819,148.755 290.333,151.211 287.105,152.955C283.877,154.699 280.014,155.571 275.516,155.571L266.198,155.571ZM266.198,144.418L275.516,144.418C277.443,144.418 279.004,143.989 280.197,143.133C281.391,142.276 282.263,141.09 282.813,139.575C283.364,138.061 283.64,136.355 283.64,134.458C283.64,132.53 283.364,130.725 282.813,129.042C282.263,127.359 281.391,126.005 280.197,124.98C279.004,123.955 277.443,123.442 275.516,123.442L266.198,123.442L266.198,144.418ZM316.207,108.617L316.207,179.117L303.31,179.117L303.31,108.617L316.207,108.617ZM348.065,174.57C346.927,176.129 345.565,177.377 343.979,178.314C342.036,179.461 339.748,180.035 337.117,180.035C335.097,180.035 333.238,179.691 331.54,179.002C329.842,178.314 328.381,177.227 327.157,175.743C325.933,174.259 324.977,172.347 324.288,170.006C323.6,167.665 323.255,164.858 323.255,161.584L323.255,129.455L336.153,129.455L336.153,161.676C336.153,163.022 336.268,164.177 336.497,165.141C336.727,166.105 337.063,166.893 337.507,167.505C337.951,168.117 338.463,168.553 339.044,168.813C339.626,169.073 340.284,169.203 341.018,169.203C343.038,169.203 344.636,168.675 345.815,167.619C346.531,166.978 347.12,166.189 347.582,165.253L347.582,129.455L360.479,129.455L360.479,179.117L348.362,179.117L348.065,174.57ZM389.008,165.715C389.008,164.858 388.717,164.093 388.136,163.42C387.554,162.747 386.636,162.05 385.382,161.331C384.127,160.612 382.46,159.809 380.379,158.922C378.114,158.004 376.11,157.055 374.366,156.076C372.622,155.097 371.146,154.011 369.937,152.817C368.728,151.624 367.818,150.262 367.206,148.732C366.594,147.202 366.288,145.458 366.288,143.5C366.288,141.388 366.678,139.438 367.458,137.648C368.239,135.858 369.363,134.282 370.832,132.92C372.301,131.559 374.098,130.488 376.225,129.707C378.352,128.927 380.746,128.537 383.408,128.537C387.141,128.537 390.346,129.187 393.024,130.488C395.701,131.788 397.759,133.601 399.197,135.927C400.635,138.252 401.354,140.96 401.354,144.051L388.503,144.051C388.503,142.949 388.335,141.962 387.998,141.09C387.661,140.218 387.118,139.537 386.369,139.048C385.619,138.558 384.617,138.313 383.362,138.313C382.444,138.313 381.626,138.512 380.907,138.91C380.188,139.308 379.621,139.836 379.208,140.493C378.795,141.151 378.589,141.924 378.589,142.811C378.589,143.484 378.734,144.081 379.025,144.601C379.315,145.122 379.782,145.626 380.425,146.116C381.067,146.606 381.932,147.118 383.018,147.654C384.104,148.189 385.443,148.778 387.034,149.421C390.339,150.645 393.054,151.96 395.181,153.368C397.308,154.776 398.891,156.42 399.932,158.302C400.972,160.184 401.492,162.502 401.492,165.256C401.492,167.459 401.071,169.463 400.23,171.268C399.388,173.074 398.172,174.634 396.581,175.95C394.99,177.266 393.085,178.276 390.867,178.979C388.648,179.683 386.177,180.035 383.454,180.035C379.446,180.035 376.064,179.239 373.31,177.648C370.557,176.057 368.476,174.015 367.068,171.521C365.661,169.027 364.957,166.434 364.957,163.741L377.166,163.741C377.227,165.393 377.541,166.686 378.107,167.619C378.673,168.553 379.446,169.203 380.425,169.57C381.404,169.937 382.49,170.121 383.683,170.121C384.877,170.121 385.864,169.96 386.644,169.639C387.424,169.318 388.013,168.813 388.411,168.124C388.809,167.436 389.008,166.633 389.008,165.715ZM454.602,161.538C454.602,160.345 454.495,159.258 454.281,158.279C454.067,157.3 453.615,156.397 452.927,155.571C452.238,154.745 451.244,153.919 449.943,153.093C448.643,152.266 446.952,151.41 444.872,150.522C442.393,149.482 439.991,148.373 437.666,147.195C435.34,146.017 433.244,144.647 431.377,143.087C429.511,141.526 428.035,139.683 426.948,137.556C425.862,135.429 425.319,132.928 425.319,130.052C425.319,127.236 425.831,124.681 426.856,122.387C427.882,120.092 429.343,118.126 431.24,116.489C433.137,114.852 435.363,113.589 437.918,112.702C440.473,111.815 443.326,111.371 446.478,111.371C450.762,111.371 454.472,112.258 457.608,114.033C460.745,115.808 463.177,118.24 464.906,121.331C466.635,124.421 467.5,127.971 467.5,131.979L454.097,131.979C454.097,130.082 453.829,128.407 453.294,126.953C452.758,125.5 451.909,124.36 450.747,123.534C449.584,122.708 448.084,122.295 446.249,122.295C444.535,122.295 443.12,122.639 442.003,123.327C440.886,124.016 440.06,124.949 439.524,126.127C438.989,127.305 438.721,128.629 438.721,130.097C438.721,131.199 438.989,132.186 439.524,133.058C440.06,133.93 440.802,134.71 441.751,135.399C442.699,136.087 443.824,136.753 445.124,137.395C446.424,138.038 447.855,138.665 449.416,139.277C452.445,140.47 455.122,141.779 457.448,143.201C459.773,144.624 461.716,146.215 463.277,147.975C464.837,149.734 466.015,151.716 466.811,153.919C467.607,156.122 468.004,158.631 468.004,161.446C468.004,164.231 467.522,166.763 466.559,169.042C465.595,171.322 464.195,173.28 462.359,174.917C460.523,176.554 458.312,177.817 455.727,178.704C453.141,179.591 450.257,180.035 447.075,180.035C443.984,180.035 441.062,179.599 438.308,178.727C435.554,177.855 433.129,176.524 431.033,174.734C428.937,172.944 427.293,170.664 426.099,167.895C424.906,165.126 424.309,161.844 424.309,158.05L437.757,158.05C437.757,160.069 437.956,161.79 438.354,163.213C438.752,164.636 439.364,165.768 440.19,166.61C441.016,167.451 442.034,168.078 443.242,168.491C444.451,168.905 445.835,169.111 447.396,169.111C449.171,169.111 450.586,168.775 451.642,168.101C452.697,167.428 453.455,166.526 453.914,165.393C454.373,164.261 454.602,162.976 454.602,161.538ZM486.114,142.749L486.114,179.117L473.263,179.117L473.263,108.617L486.114,108.617L486.114,133.806C487.261,132.375 488.569,131.215 490.038,130.327C492.012,129.134 494.192,128.537 496.579,128.537C498.629,128.537 500.496,128.889 502.179,129.593C503.861,130.296 505.323,131.398 506.562,132.897C507.801,134.397 508.757,136.378 509.431,138.841C510.104,141.304 510.44,144.28 510.44,147.768L510.44,179.117L497.543,179.117L497.543,147.677C497.543,145.535 497.329,143.852 496.9,142.628C496.472,141.404 495.829,140.539 494.973,140.034C494.116,139.53 493.045,139.277 491.76,139.277C490.383,139.277 489.212,139.614 488.248,140.287C487.383,140.892 486.671,141.712 486.114,142.749ZM539.563,175.219C539.237,175.661 538.886,176.088 538.51,176.501C537.561,177.541 536.391,178.39 534.999,179.048C533.606,179.706 531.962,180.035 530.065,180.035C527.403,180.035 524.97,179.423 522.767,178.199C520.564,176.975 518.827,175.262 517.557,173.058C516.287,170.855 515.653,168.239 515.653,165.21C515.653,162.701 516.058,160.429 516.869,158.394C517.68,156.359 518.896,154.63 520.518,153.207C522.139,151.784 524.19,150.691 526.668,149.926C529.147,149.161 532.054,148.778 535.389,148.778L538.923,148.778L538.923,144.739C538.923,143.24 538.747,142.046 538.395,141.159C538.043,140.272 537.523,139.621 536.835,139.208C536.146,138.795 535.312,138.589 534.333,138.589C533.232,138.589 532.314,138.818 531.579,139.277C530.845,139.736 530.302,140.394 529.95,141.251C529.598,142.108 529.422,143.133 529.422,144.326L516.525,144.326C516.525,142.184 516.938,140.157 517.764,138.244C518.59,136.332 519.806,134.649 521.413,133.196C523.019,131.742 524.939,130.602 527.173,129.776C529.407,128.95 531.916,128.537 534.7,128.537C538.005,128.537 540.943,129.095 543.513,130.212C546.083,131.329 548.118,133.096 549.617,135.513C551.117,137.931 551.866,141.067 551.866,144.923L551.866,167.046C551.866,169.83 552.012,172.095 552.302,173.839C552.593,175.583 553.029,177.082 553.611,178.337L553.611,179.117L540.667,179.117C540.209,178.032 539.841,176.732 539.563,175.219ZM538.923,156.489L535.802,156.489C534.578,156.489 533.515,156.688 532.612,157.086C531.709,157.484 530.952,158.042 530.34,158.761C529.728,159.48 529.277,160.314 528.986,161.262C528.695,162.211 528.55,163.221 528.55,164.292C528.55,165.485 528.718,166.495 529.055,167.321C529.391,168.147 529.896,168.775 530.569,169.203C531.243,169.631 532.038,169.845 532.956,169.845C534.364,169.845 535.588,169.555 536.628,168.973C537.653,168.401 538.418,167.709 538.923,166.899L538.923,156.489ZM571.353,175.03L571.353,198.211L558.547,198.211L558.547,129.455L570.389,129.455L570.851,134.027C571.944,132.45 573.221,131.194 574.681,130.258C576.471,129.111 578.605,128.537 581.083,128.537C583.776,128.537 586.125,129.026 588.129,130.006C590.133,130.985 591.801,132.461 593.132,134.435C594.463,136.408 595.465,138.91 596.138,141.939C596.811,144.969 597.148,148.518 597.148,152.588L597.148,155.892C597.148,159.778 596.811,163.213 596.138,166.197C595.465,169.18 594.463,171.704 593.132,173.77C591.801,175.835 590.141,177.396 588.152,178.451C586.163,179.507 583.837,180.035 581.175,180.035C578.697,180.035 576.562,179.446 574.772,178.268C573.487,177.422 572.347,176.342 571.353,175.03ZM571.353,165.938C571.788,166.742 572.339,167.425 573.005,167.987C574.076,168.889 575.53,169.341 577.366,169.341C578.681,169.341 579.775,169.065 580.647,168.514C581.52,167.964 582.231,167.137 582.782,166.036C583.333,164.934 583.723,163.542 583.952,161.859C584.182,160.176 584.296,158.187 584.296,155.892L584.296,152.588C584.296,150.201 584.166,148.166 583.906,146.483C583.646,144.8 583.241,143.423 582.69,142.352C582.139,141.281 581.42,140.501 580.533,140.012C579.645,139.522 578.559,139.277 577.274,139.277C576.019,139.277 574.925,139.522 573.992,140.012C573.059,140.501 572.302,141.213 571.72,142.146C571.591,142.353 571.469,142.57 571.353,142.797L571.353,165.938ZM613.954,158.554C614.021,160.232 614.211,161.678 614.523,162.892C614.921,164.437 615.51,165.692 616.29,166.656C617.071,167.619 618.027,168.308 619.159,168.721C620.291,169.134 621.607,169.341 623.106,169.341C625.371,169.341 627.413,168.935 629.234,168.124C631.054,167.313 632.607,166.204 633.892,164.797L639.033,172.599C638.146,173.762 636.922,174.925 635.361,176.088C633.801,177.25 631.934,178.199 629.762,178.933C627.589,179.668 625.08,180.035 622.234,180.035C618.838,180.035 615.831,179.515 613.215,178.474C610.599,177.434 608.388,175.927 606.583,173.953C604.777,171.98 603.401,169.585 602.452,166.77C601.503,163.955 601.029,160.742 601.029,157.132L601.029,153.047C601.029,149.008 601.488,145.466 602.406,142.421C603.324,139.377 604.624,136.814 606.307,134.733C607.99,132.652 610.063,131.1 612.527,130.074C614.99,129.049 617.782,128.537 620.903,128.537C624.024,128.537 626.77,129.049 629.142,130.074C631.513,131.1 633.479,132.63 635.04,134.664C636.6,136.699 637.778,139.216 638.574,142.215C639.37,145.213 639.767,148.702 639.767,152.679L639.767,158.554L613.954,158.554ZM614.026,149.512L627.145,149.512L627.145,148.365C627.145,146.345 626.931,144.655 626.503,143.293C626.074,141.932 625.401,140.914 624.483,140.241C623.565,139.568 622.341,139.231 620.811,139.231C619.526,139.231 618.44,139.491 617.553,140.012C616.665,140.532 615.961,141.343 615.441,142.444C614.921,143.546 614.539,144.976 614.294,146.736C614.176,147.582 614.087,148.507 614.026,149.512ZM677.318,155.571L677.318,179.117L663.87,179.117L663.87,112.289L686.635,112.289C691.133,112.289 694.996,113.237 698.225,115.135C701.453,117.032 703.939,119.64 705.683,122.96C707.427,126.28 708.299,130.082 708.299,134.366C708.299,138.68 707.427,142.421 705.683,145.588C703.939,148.755 701.453,151.211 698.225,152.955C694.996,154.699 691.133,155.571 686.635,155.571L677.318,155.571ZM677.318,144.418L686.635,144.418C688.563,144.418 690.123,143.989 691.317,143.133C692.51,142.276 693.382,141.09 693.933,139.575C694.484,138.061 694.759,136.355 694.759,134.458C694.759,132.53 694.484,130.725 693.933,129.042C693.382,127.359 692.51,126.005 691.317,124.98C690.123,123.955 688.563,123.442 686.635,123.442L677.318,123.442L677.318,144.418ZM726.684,146.245L726.684,179.117L713.833,179.117L713.833,129.455L725.95,129.455L726.309,134.864L726.317,134.848C727.327,132.844 728.543,131.291 729.966,130.189C731.389,129.088 733.003,128.537 734.808,128.537C735.42,128.537 736.071,128.59 736.759,128.698C737.448,128.805 737.991,128.935 738.388,129.088L738.205,141.893C737.623,141.771 736.927,141.679 736.116,141.618C735.306,141.557 734.594,141.526 733.982,141.526C732.544,141.526 731.32,141.748 730.31,142.192C729.301,142.635 728.467,143.293 727.809,144.165C727.359,144.762 726.984,145.455 726.684,146.245ZM752.991,158.554C753.058,160.232 753.248,161.678 753.561,162.892C753.958,164.437 754.547,165.692 755.328,166.656C756.108,167.619 757.064,168.308 758.196,168.721C759.329,169.134 760.644,169.341 762.144,169.341C764.408,169.341 766.45,168.935 768.271,168.124C770.092,167.313 771.645,166.204 772.93,164.797L778.07,172.599C777.183,173.762 775.959,174.925 774.399,176.088C772.838,177.25 770.971,178.199 768.799,178.933C766.626,179.668 764.117,180.035 761.272,180.035C757.875,180.035 754.869,179.515 752.253,178.474C749.636,177.434 747.426,175.927 745.62,173.953C743.815,171.98 742.438,169.585 741.489,166.77C740.541,163.955 740.066,160.742 740.066,157.132L740.066,153.047C740.066,149.008 740.525,145.466 741.443,142.421C742.361,139.377 743.662,136.814 745.345,134.733C747.028,132.652 749.101,131.1 751.564,130.074C754.027,129.049 756.819,128.537 759.941,128.537C763.062,128.537 765.808,129.049 768.179,130.074C770.551,131.1 772.517,132.63 774.077,134.664C775.638,136.699 776.816,139.216 777.611,142.215C778.407,145.213 778.805,148.702 778.805,152.679L778.805,158.554L752.991,158.554ZM753.063,149.512L766.183,149.512L766.183,148.365C766.183,146.345 765.969,144.655 765.54,143.293C765.112,141.932 764.439,140.914 763.521,140.241C762.603,139.568 761.379,139.231 759.849,139.231C758.564,139.231 757.477,139.491 756.59,140.012C755.703,140.532 754.999,141.343 754.479,142.444C753.958,143.546 753.576,144.976 753.331,146.736C753.213,147.582 753.124,148.507 753.063,149.512ZM805.222,179.117L792.921,179.117L779.289,129.455L792.738,129.455L799.145,160.841L805.452,129.455L818.854,129.455L805.222,179.117ZM835.678,129.455L835.678,179.117L822.781,179.117L822.781,129.455L835.678,129.455ZM822.184,116.557C822.184,114.568 822.819,112.931 824.089,111.646C825.359,110.361 827.08,109.719 829.253,109.719C831.395,109.719 833.093,110.361 834.347,111.646C835.602,112.931 836.229,114.568 836.229,116.557C836.229,118.546 835.602,120.191 834.347,121.491C833.093,122.792 831.395,123.442 829.253,123.442C827.08,123.442 825.359,122.792 824.089,121.491C822.819,120.191 822.184,118.546 822.184,116.557ZM854.779,158.554C854.846,160.232 855.036,161.678 855.349,162.892C855.746,164.437 856.335,165.692 857.116,166.656C857.896,167.619 858.852,168.308 859.984,168.721C861.117,169.134 862.432,169.341 863.932,169.341C866.196,169.341 868.238,168.935 870.059,168.124C871.88,167.313 873.433,166.204 874.718,164.797L879.858,172.599C878.971,173.762 877.747,174.925 876.187,176.088C874.626,177.25 872.759,178.199 870.587,178.933C868.414,179.668 865.905,180.035 863.06,180.035C859.663,180.035 856.657,179.515 854.041,178.474C851.424,177.434 849.214,175.927 847.408,173.953C845.603,171.98 844.226,169.585 843.277,166.77C842.329,163.955 841.855,160.742 841.855,157.132L841.855,153.047C841.855,149.008 842.314,145.466 843.231,142.421C844.149,139.377 845.45,136.814 847.133,134.733C848.816,132.652 850.889,131.1 853.352,130.074C855.815,129.049 858.607,128.537 861.729,128.537C864.85,128.537 867.596,129.049 869.967,130.074C872.339,131.1 874.305,132.63 875.865,134.664C877.426,136.699 878.604,139.216 879.399,142.215C880.195,145.213 880.593,148.702 880.593,152.679L880.593,158.554L854.779,158.554ZM854.851,149.512L867.971,149.512L867.971,148.365C867.971,146.345 867.757,144.655 867.328,143.293C866.9,141.932 866.227,140.914 865.309,140.241C864.391,139.568 863.167,139.231 861.637,139.231C860.352,139.231 859.265,139.491 858.378,140.012C857.491,140.532 856.787,141.343 856.267,142.444C855.746,143.546 855.364,144.976 855.119,146.736C855.001,147.582 854.912,148.507 854.851,149.512ZM903.109,179.117L892.369,179.117L882.041,129.455L894.388,129.455L898.919,157.38L905.541,129.455L914.721,129.455L921.404,157.423L925.874,129.455L938.313,129.455L927.94,179.117L917.245,179.117L910.168,150.35L903.109,179.117ZM953.65,158.554C953.717,160.232 953.907,161.678 954.219,162.892C954.617,164.437 955.206,165.692 955.987,166.656C956.767,167.619 957.723,168.308 958.855,168.721C959.987,169.134 961.303,169.341 962.802,169.341C965.067,169.341 967.109,168.935 968.93,168.124C970.751,167.313 972.303,166.204 973.589,164.797L978.729,172.599C977.842,173.762 976.618,174.925 975.057,176.088C973.497,177.25 971.63,178.199 969.458,178.933C967.285,179.668 964.776,180.035 961.93,180.035C958.534,180.035 955.528,179.515 952.911,178.474C950.295,177.434 948.084,175.927 946.279,173.953C944.474,171.98 943.097,169.585 942.148,166.77C941.2,163.955 940.725,160.742 940.725,157.132L940.725,153.047C940.725,149.008 941.184,145.466 942.102,142.421C943.02,139.377 944.321,136.814 946.004,134.733C947.687,132.652 949.76,131.1 952.223,130.074C954.686,129.049 957.478,128.537 960.599,128.537C963.72,128.537 966.467,129.049 968.838,130.074C971.209,131.1 973.175,132.63 974.736,134.664C976.297,136.699 977.475,139.216 978.27,142.215C979.066,145.213 979.464,148.702 979.464,152.679L979.464,158.554L953.65,158.554ZM953.722,149.512L966.841,149.512L966.841,148.365C966.841,146.345 966.627,144.655 966.199,143.293C965.771,141.932 965.097,140.914 964.179,140.241C963.261,139.568 962.037,139.231 960.507,139.231C959.222,139.231 958.136,139.491 957.249,140.012C956.361,140.532 955.658,141.343 955.137,142.444C954.617,143.546 954.235,144.976 953.99,146.736C953.872,147.582 953.783,148.507 953.722,149.512ZM996.931,146.245L996.931,179.117L984.079,179.117L984.079,129.455L996.196,129.455L996.555,134.864L996.563,134.848C997.573,132.844 998.79,131.291 1000.21,130.189C1001.63,129.088 1003.25,128.537 1005.06,128.537C1005.67,128.537 1006.32,128.59 1007,128.698C1007.69,128.805 1008.24,128.935 1008.63,129.088L1008.45,141.893C1007.87,141.771 1007.17,141.679 1006.36,141.618C1005.55,141.557 1004.84,141.526 1004.23,141.526C1002.79,141.526 1001.57,141.748 1000.56,142.192C999.547,142.635 998.713,143.293 998.055,144.165C997.605,144.762 997.23,145.455 996.931,146.245Z" style="fill:#f7ca3e;"/></g></svg>